<svg width="42" height="42" viewBox="0 0 42 42" fill="none" xmlns="http://www.w3.org/2000/svg">
<rect width="42" height="42" rx="3" fill="#D7E6F1"/>
<path d="M25.0949 32.1892L20.8454 34.2025L16.5959 32.1892L17.3454 28.3074H24.1345L25.0949 32.1892Z" fill="#DBA87B"/>
<path d="M27.1206 19.9449C27.001 21.4438 26.779 23.0984 26.4294 24.54C26.1963 24.8263 26.2325 26.8265 25.6197 27.809C25.1174 28.6157 23.8596 29.123 22.6953 30.3275C21.993 31.0529 19.3519 30.856 18.8828 30.3275C18.1956 29.555 16.326 28.6619 15.8117 27.8924C15.2039 26.9802 15.3244 25.6762 15.0863 24.7148C14.7538 23.3746 14.5057 21.703 14.362 19.9449C13.9612 15.0283 17.2171 12.8503 20.7413 12.8503C24.2645 12.8503 27.5184 15.0283 27.1206 19.9449Z" fill="#E4B58B"/>
<path d="M28.3648 22.0156C28.2754 22.5631 27.8002 23.5235 27.5963 23.8691C27.4587 24.1022 26.7444 24.5683 26.4279 24.5392C26.1095 24.51 26.231 23.6541 26.1135 23.3628C25.997 23.0714 25.9487 22.4566 25.9638 21.7905C25.9889 20.7076 26.6459 20.2876 27.31 20.3499C27.973 20.4122 28.5406 20.9457 28.3648 22.0156Z" fill="#E4B58B"/>
<path d="M13.1416 22.0156C13.231 22.5631 13.7062 23.5235 13.9101 23.8691C14.0478 24.1022 14.762 24.5683 15.0795 24.5392C15.397 24.51 15.2764 23.6541 15.3939 23.3628C15.5105 23.0714 15.5587 22.4566 15.5436 21.7905C15.5185 20.7076 14.8615 20.2876 14.1975 20.3499C13.5334 20.4122 12.9668 20.9457 13.1416 22.0156Z" fill="#E4B58B"/>
<path d="M15.0405 19.8942C15.0405 19.8942 15.3489 19.1066 15.6614 19.0072C16.4018 18.7741 17.5902 18.9017 17.8354 18.8966C18.2603 18.8896 18.9123 18.8334 18.9123 18.8334L18.7405 19.417C18.7405 19.417 18.1548 19.3527 17.6656 19.3658C17.4084 19.3718 16.6208 19.0755 15.7859 19.2975C15.4866 19.3769 15.0405 19.8942 15.0405 19.8942Z" fill="#331B19"/>
<path d="M26.0658 19.8942C26.0658 19.8942 25.7574 19.1066 25.4439 19.0072C24.7035 18.7741 23.5161 18.9017 23.271 18.8966C22.846 18.8896 22.194 18.8334 22.194 18.8334L22.3648 19.417C22.3648 19.417 22.9505 19.3527 23.4397 19.3658C23.6979 19.3718 24.4855 19.0755 25.3204 19.2975C25.6197 19.3769 26.0658 19.8942 26.0658 19.8942Z" fill="#331B19"/>
<path d="M14.4397 20.8104C14.6225 21.5608 15.0404 23.2817 15.0404 23.2817C15.0404 23.2817 15.4634 22.9934 15.0404 21.827C14.6175 20.6597 15.0083 19.8168 14.8978 18.553C14.7812 17.2189 15.0314 16.4795 15.3669 16.2354C16.9763 15.064 18.7384 15.8597 19.9439 15.8838C21.1494 15.9079 22.0516 15.2639 23.5143 15.275C24.977 15.287 25.8802 16.2113 26.1142 16.7738C26.2157 17.016 26.2679 17.9804 26.2951 18.996C26.3322 20.3372 26.5743 20.2166 26.5352 21.0113C26.496 21.8049 26.4176 23.3761 26.4176 23.3761L27.153 20.3462L27.8391 20.523C27.8391 20.523 28.3967 14.7717 27.3429 13.4375C26.289 12.1024 23.234 10.4528 20.0383 10.4528C17.346 10.4528 14.0207 12.9101 13.424 14.4562C12.9287 15.7401 13.0875 17.3173 13.211 18.6555C13.2371 18.9398 13.2331 19.1668 13.5184 19.3004C13.6551 19.3637 13.8821 19.424 13.9364 19.2452C13.9685 19.1397 13.7987 18.8875 13.7605 18.7871C13.6882 18.6002 13.648 18.4264 13.633 18.2265C13.6038 17.8307 13.5807 17.4037 13.6681 17.0119C13.7525 16.6322 14.0017 16.3559 14.2428 16.0656C14.6426 15.5824 15.1158 15.062 15.597 14.6591C16.0239 14.3015 16.7563 14.1106 17.3088 14.1036C18.1919 14.0925 19.0227 14.3266 19.9098 14.1799C20.4161 14.0966 20.8933 14.0282 21.4086 14.0323C21.8607 14.0363 22.3148 14.0966 22.7669 14.0805C23.5384 14.0534 24.2105 14.0343 24.9489 14.3306C25.634 14.6059 26.2599 15.072 26.5352 15.7723C26.7712 16.374 26.7954 16.9165 26.7451 17.5434C26.6989 18.11 26.717 18.7449 26.8104 19.3014C26.8727 19.6701 27.0736 20.0529 27.0787 20.4226C27.1972 20.2106 27.6312 20.4999 27.8201 20.5622C27.6643 20.071 27.8401 19.647 28.0391 19.213C28.234 18.7871 28.1978 18.3139 28.1978 17.8267C28.1978 17.4299 28.1044 17.0933 28.1044 16.7025C28.1044 16.3127 28.1285 15.9601 28.1516 15.5794C28.1767 15.1454 28.1897 14.847 28.0571 14.4311C27.9085 13.9619 27.7296 13.6445 27.4212 13.2597C27.1701 12.9473 26.926 12.6298 26.6246 12.3767C26.3031 12.1074 25.8942 11.9336 25.5004 11.7799C25.0845 11.6172 24.6766 11.4303 24.2889 11.2184C24.093 11.1109 23.884 11.0335 23.6981 10.925C23.4631 10.7864 23.3716 10.7874 23.0944 10.8024C22.9025 10.8125 22.6684 10.7944 22.5047 10.714C22.3158 10.6216 22.1681 10.481 21.9692 10.4036C21.6266 10.272 21.261 10.1012 20.8913 10.0239C20.4643 9.93447 20.2172 10.1183 19.8394 10.2107C19.6003 10.271 19.4286 10.1866 19.2065 10.1183C18.9383 10.0349 18.7535 10.1002 18.4742 10.1223C18.0412 10.1595 17.784 10.2198 17.4495 10.5392C17.3279 10.6558 17.2445 10.8105 17.1049 10.9009C16.9602 10.9933 16.7834 11.0134 16.6307 11.0878C16.0008 11.3942 15.1228 11.7327 14.6637 12.2712C14.2146 12.7966 14.0408 13.5119 13.5355 13.979C13.2351 14.2573 13.1357 14.4944 13.0955 14.8982C13.0774 15.0791 13.1206 15.284 13.0664 15.4548C13.0121 15.6246 12.8865 15.7501 12.8423 15.928C12.7499 16.3057 12.8896 16.6734 12.9549 17.028C13.0232 17.3987 12.978 17.8186 12.978 18.1994C12.978 18.3862 12.9629 18.5922 12.997 18.766C13.0272 18.9287 13.1025 19.0553 13.1186 19.2291C13.1377 19.423 13.1116 19.5707 13.1889 19.7445C13.2412 19.859 13.6189 20.5562 13.4712 20.6727C13.4742 20.6727 14.2568 20.0609 14.4397 20.8104Z" fill="#331B19"/>
<path d="M25.8556 41.9419V32.2735L20.6075 33.898L15.5453 32.2735V41.9419H25.8556Z" fill="#E7E7E7"/>
<path d="M20.7564 33.8987C20.7564 33.8987 19.3218 34.396 19.3218 34.8451C19.3218 35.2931 20.1064 36.4534 20.1064 36.4534H21.54C21.54 36.4534 22.1889 35.2961 22.1889 34.8451C22.1899 34.394 20.7564 33.8987 20.7564 33.8987Z" fill="#655351"/>
<path d="M22.046 41.9424L21.5406 36.4532H20.1071L19.5666 41.9424H22.046Z" fill="#655351"/>
<path d="M27.1196 31.8611L22.5667 34.8588L20.7855 33.9034L24.6844 29.9493L27.1196 31.8611Z" fill="white"/>
<path d="M14.442 31.8385L18.8754 34.8593L20.7851 33.9039L16.8702 29.9357L14.442 31.8385Z" fill="white"/>
<path d="M33.3278 41.9421C32.92 37.8553 32.3865 33.9253 31.7958 33.2241C30.4908 31.68 25.2508 30.3931 25.2508 30.3931L23.5942 41.9421H33.3278Z" fill="#1C2C42"/>
<path d="M25.7639 41.942L28.5517 36.3855L26.3767 35.2423L27.97 34.2829L25.2496 30.392L23.6301 41.942H25.7639Z" fill="#0D3858"/>
<path d="M17.9473 41.942L16.2907 30.392C16.2907 30.392 11.0497 31.6789 9.74672 33.223C9.155 33.9243 8.62055 37.8543 8.21368 41.942H17.9473Z" fill="#1C2C42"/>
<path d="M15.7765 41.942H17.9103L16.2909 30.392L13.5714 34.2829L15.1647 35.2423L12.9887 36.3855L15.7765 41.942Z" fill="#0D3858"/>
<path d="M19.9448 27.9499C19.9448 27.9499 20.9303 27.8213 21.1443 27.9499C21.3582 28.0785 21.7018 28.2061 21.7018 28.2061" fill="#DBA87B"/>
<path d="M15.2032 23.5391C15.2032 23.5391 15.2032 24.6954 15.7185 24.9827C16.2329 25.2711 16.6548 25.5755 16.7242 25.8095C16.7945 26.0436 17.5208 28.1744 17.8483 28.5019C18.1758 28.8294 19.1463 29.6753 19.6737 29.6733C20.3207 29.6702 20.2594 28.737 20.2594 28.737L20.8451 28.7601V30.8014C20.8451 30.8014 19.4255 30.8466 18.8811 30.3283C18.2461 29.7255 17.8192 29.4904 17.2003 29.0554C16.5825 28.6214 15.9255 28.2417 15.6241 27.5897C15.2022 26.6765 15.2725 25.1666 15.0525 24.5809C15.1409 24.4553 14.939 22.863 14.939 22.863L15.2032 23.5391Z" fill="#331B19"/>
<path d="M26.2622 23.5391C26.2622 23.5391 26.2622 24.6954 25.7468 24.9827C25.2325 25.2711 24.8105 25.5755 24.7402 25.8095C24.6699 26.0436 23.9435 28.1744 23.616 28.5019C23.2885 28.8294 22.3181 29.6753 21.7897 29.6733C21.1437 29.6702 21.204 28.737 21.204 28.737L20.6183 28.7601V30.8014C20.6183 30.8014 22.0378 30.8466 22.5823 30.3283C23.2172 29.7255 23.6442 29.4904 24.262 29.0554C24.8808 28.6214 25.5389 28.2417 25.8392 27.5897C26.2612 26.6765 26.1898 25.1666 26.4109 24.5809C26.3225 24.4553 26.5254 22.863 26.5254 22.863L26.2622 23.5391Z" fill="#331B19"/>
<path d="M25.6581 20.5763C25.6581 20.5763 25.5948 20.938 25.2703 21.2454C25.0252 21.4765 23.5323 21.6322 23.3736 21.5619C23.1395 21.4554 22.8331 20.9521 22.8331 20.9521C22.8331 20.9521 23.3595 20.2287 24.0075 20.2287C24.6545 20.2287 25.6581 20.5763 25.6581 20.5763Z" fill="white"/>
<path d="M24.0065 20.3701C24.4746 20.3701 25.1266 20.5519 25.4541 20.6524C25.5285 20.6765 25.4903 20.9317 25.3657 21.1457C25.6319 20.9005 25.6581 20.577 25.6581 20.577C25.6581 20.577 24.6545 20.2294 24.0065 20.2294C23.3575 20.2294 22.8321 20.9528 22.8321 20.9528C22.8321 20.9528 22.8522 21.0231 22.9074 21.0683C23.023 20.9236 23.4449 20.3701 24.0065 20.3701Z" fill="#432918"/>
<path d="M24.7218 20.884C24.7218 21.2487 24.4285 21.542 24.0638 21.542C23.7001 21.542 23.4058 21.2487 23.4058 20.884C23.4058 20.5214 23.7001 20.227 24.0638 20.227C24.4285 20.228 24.7218 20.5224 24.7218 20.884Z" fill="#432918"/>
<path d="M24.6283 20.8855C24.6283 21.1648 23.8457 20.3812 24.124 20.3812C24.4023 20.3822 24.6283 20.6082 24.6283 20.8855Z" fill="white"/>
<path d="M16.0339 20.577C16.0339 20.577 16.0972 20.9387 16.4217 21.2461C16.6668 21.4772 18.1606 21.6329 18.3184 21.5626C18.5544 21.4561 18.8598 20.9528 18.8598 20.9528C18.8598 20.9528 18.3334 20.2294 17.6865 20.2294C17.0375 20.2294 16.0339 20.577 16.0339 20.577Z" fill="white"/>
<path d="M17.6871 20.3693C17.219 20.3693 16.565 20.5512 16.2395 20.6516C16.1641 20.6757 16.2023 20.9309 16.3279 21.1449C16.0616 20.8998 16.0355 20.5763 16.0355 20.5763C16.0355 20.5763 17.0391 20.2287 17.6881 20.2287C18.3361 20.2287 18.8615 20.952 18.8615 20.952C18.8615 20.952 18.8414 21.0223 18.7861 21.0675C18.6706 20.9229 18.2487 20.3693 17.6871 20.3693Z" fill="#432918"/>
<path d="M16.9697 20.884C16.9697 21.2487 17.2651 21.542 17.6277 21.542C17.9904 21.542 18.2858 21.2487 18.2858 20.884C18.2858 20.5214 17.9914 20.227 17.6277 20.227C17.2641 20.227 16.9697 20.5224 16.9697 20.884Z" fill="#432918"/>
<path d="M17.0635 20.8855C17.0635 21.1648 17.8461 20.3812 17.5678 20.3812C17.2895 20.3822 17.0635 20.6082 17.0635 20.8855Z" fill="white"/>
<path d="M20.6094 23.5428L20.0187 23.0756L20.6094 21.6993V23.5428Z" fill="#E09D72"/>
<path d="M18.9677 26.2361L18.7467 26.0211L22.7169 25.8071L22.0047 26.2361H18.9677Z" fill="#E09D72"/>
<path d="M23.7157 25.0566C23.2726 24.7401 21.8903 24.496 21.5206 24.3041C21.1991 24.1374 21.1338 24.0319 21.1338 24.0319C21.1338 24.0319 21.1459 24.2861 20.7923 24.3041C20.4397 24.3212 20.4517 24.0319 20.4517 24.0319C20.4517 24.0319 20.3181 24.1374 19.9966 24.3041C19.6279 24.496 18.2446 24.7401 17.8015 25.0566C17.3806 25.357 17.4419 25.9537 17.4419 25.9537L17.5825 26.2742C17.5825 26.2742 17.5815 25.5569 18.0808 25.373C18.332 25.2806 19.7244 24.8878 20.2176 24.9441C20.6024 24.9893 20.7601 25.2957 20.7601 25.2957C20.7601 25.2957 20.956 24.9893 21.3408 24.9441C21.832 24.8878 23.1873 25.2806 23.4374 25.373C23.9367 25.5569 23.9859 26.2008 23.9859 26.2008L24.1326 25.9889C24.1316 25.9889 24.1366 25.357 23.7157 25.0566Z" fill="#331B19"/>
</svg>
