<svg width="42" height="42" viewBox="0 0 42 42" fill="none" xmlns="http://www.w3.org/2000/svg">
<rect width="42" height="42" rx="3" fill="#D7E6F1"/>
<path d="M24.8245 32.8002L20.841 34.6874L16.8576 32.8002L17.5601 29.1615H23.9242L24.8245 32.8002Z" fill="#DBA87B"/>
<path d="M26.7233 21.3227C26.6112 22.7277 26.4031 24.2787 26.0754 25.6301C25.8569 25.8984 25.8908 27.7734 25.3164 28.6944C24.8455 29.4506 23.6665 29.9261 22.5751 31.0552C21.9168 31.7352 19.4411 31.5506 19.0013 31.0552C18.3572 30.3311 16.6047 29.4939 16.1225 28.7725C15.5528 27.9175 15.6658 26.6951 15.4426 25.7939C15.1309 24.5377 14.8983 22.9707 14.7636 21.3227C14.3879 16.714 17.4399 14.6724 20.7435 14.6724C24.046 14.6724 27.0962 16.714 26.7233 21.3227Z" fill="#E4B58B"/>
<path d="M27.8894 23.2635C27.8056 23.7768 27.3601 24.6771 27.169 25.001C27.0399 25.2195 26.3704 25.6564 26.0738 25.6291C25.7752 25.6018 25.8892 24.7995 25.779 24.5264C25.6698 24.2533 25.6246 23.677 25.6387 23.0526C25.6622 22.0374 26.2781 21.6438 26.9006 21.7022C27.5221 21.7606 28.0542 22.2606 27.8894 23.2635Z" fill="#E4B58B"/>
<path d="M13.6193 23.2635C13.7032 23.7768 14.1486 24.6771 14.3397 25.001C14.4688 25.2195 15.1383 25.6564 15.4359 25.6291C15.7335 25.6018 15.6205 24.7995 15.7307 24.5264C15.8399 24.2533 15.8851 23.677 15.871 23.0526C15.8474 22.0374 15.2315 21.6438 14.6091 21.7022C13.9866 21.7606 13.4555 22.2606 13.6193 23.2635Z" fill="#E4B58B"/>
<path d="M15.3995 21.2747C15.3995 21.2747 15.6886 20.5364 15.9815 20.4431C16.6756 20.2247 17.7896 20.3442 18.0194 20.3395C18.4177 20.3329 19.0289 20.2802 19.0289 20.2802L18.8678 20.8273C18.8678 20.8273 18.3188 20.7671 17.8602 20.7793C17.6191 20.785 16.8808 20.5072 16.0983 20.7153C15.8177 20.7897 15.3995 21.2747 15.3995 21.2747Z" fill="#331B19"/>
<path d="M25.7344 21.2747C25.7344 21.2747 25.4453 20.5364 25.1515 20.4431C24.4574 20.2247 23.3443 20.3442 23.1146 20.3395C22.7162 20.3329 22.105 20.2802 22.105 20.2802L22.2651 20.8273C22.2651 20.8273 22.8141 20.7671 23.2728 20.7793C23.5148 20.785 24.2531 20.5072 25.0356 20.7153C25.3163 20.7897 25.7344 21.2747 25.7344 21.2747Z" fill="#331B19"/>
<path d="M14.8364 22.1335C15.0078 22.837 15.3995 24.4501 15.3995 24.4501C15.3995 24.4501 15.796 24.1798 15.3995 23.0865C15.0031 21.9922 15.3694 21.2021 15.2658 20.0175C15.1566 18.7669 15.3911 18.0738 15.7056 17.845C17.2142 16.7469 18.866 17.4928 19.996 17.5154C21.126 17.538 21.9717 16.9343 23.3428 16.9447C24.714 16.956 25.5606 17.8224 25.78 18.3497C25.8751 18.5767 25.9241 19.4807 25.9495 20.4328C25.9843 21.69 26.2113 21.5769 26.1745 22.3218C26.1378 23.0658 26.0644 24.5386 26.0644 24.5386L26.7537 21.6984L27.3969 21.8642C27.3969 21.8642 27.9195 16.4729 26.9317 15.2223C25.9438 13.9708 23.0801 12.4245 20.0845 12.4245C17.5607 12.4245 14.4437 14.7279 13.8843 16.1772C13.4201 17.3807 13.5688 18.8592 13.6847 20.1135C13.7092 20.38 13.7054 20.5929 13.9728 20.7181C14.1009 20.7774 14.3137 20.8339 14.3646 20.6663C14.3947 20.5674 14.2356 20.3311 14.1998 20.2369C14.132 20.0617 14.0943 19.8988 14.0802 19.7114C14.0529 19.3404 14.0312 18.9402 14.1132 18.5729C14.1923 18.2169 14.4258 17.958 14.6518 17.6858C15.0266 17.2329 15.4702 16.745 15.9212 16.3674C16.3215 16.0322 17.008 15.8532 17.5259 15.8467C18.3537 15.8363 19.1325 16.0557 19.964 15.9182C20.4386 15.8401 20.8859 15.776 21.369 15.7798C21.7928 15.7836 22.2184 15.8401 22.6422 15.825C23.3654 15.7996 23.9954 15.7817 24.6876 16.0595C25.3298 16.3175 25.9165 16.7545 26.1745 17.4108C26.3958 17.9749 26.4184 18.4834 26.3714 19.0711C26.328 19.6022 26.345 20.1973 26.4326 20.7191C26.491 21.0647 26.6793 21.4235 26.684 21.77C26.7951 21.5713 27.2019 21.8425 27.379 21.9009C27.233 21.4404 27.3978 21.043 27.5843 20.6362C27.767 20.2369 27.7331 19.7934 27.7331 19.3366C27.7331 18.9647 27.6455 18.6492 27.6455 18.2829C27.6455 17.9175 27.6681 17.5869 27.6898 17.23C27.7133 16.8232 27.7255 16.5435 27.6012 16.1537C27.4619 15.7139 27.2942 15.4163 27.0051 15.0556C26.7697 14.7628 26.5409 14.4652 26.2584 14.2279C25.957 13.9755 25.5737 13.8126 25.2046 13.6685C24.8147 13.5159 24.4324 13.3408 24.0689 13.1421C23.8853 13.0413 23.6894 12.9688 23.5152 12.8671C23.2948 12.7371 23.2091 12.7381 22.9492 12.7522C22.7693 12.7616 22.5499 12.7447 22.3964 12.6693C22.2194 12.5827 22.0809 12.4509 21.8945 12.3783C21.5734 12.255 21.2306 12.0949 20.884 12.0224C20.4838 11.9386 20.2521 12.1109 19.8981 12.1975C19.6739 12.254 19.5129 12.1749 19.3048 12.1109C19.0534 12.0327 18.8801 12.094 18.6183 12.1147C18.2124 12.1495 17.9713 12.206 17.6577 12.5055C17.5438 12.6147 17.4656 12.7597 17.3347 12.8445C17.1991 12.9311 17.0334 12.95 16.8902 13.0197C16.2998 13.3069 15.4767 13.6242 15.0464 14.129C14.6254 14.6215 14.4625 15.292 13.9888 15.7299C13.7073 15.9907 13.614 16.213 13.5764 16.5915C13.5594 16.7611 13.5999 16.9532 13.5491 17.1133C13.4982 17.2724 13.3805 17.3901 13.3391 17.5568C13.2524 17.9109 13.3833 18.2555 13.4445 18.588C13.5086 18.9355 13.4662 19.3291 13.4662 19.686C13.4662 19.8612 13.4521 20.0542 13.4841 20.2171C13.5123 20.3697 13.583 20.4883 13.598 20.6513C13.6159 20.833 13.5914 20.9714 13.664 21.1343C13.7129 21.2417 14.067 21.8952 13.9286 22.0045C13.9314 22.0045 14.665 21.431 14.8364 22.1335Z" fill="#331B19"/>
<path d="M25.5375 41.9423V32.8793L20.618 34.4021L15.8727 32.8793V41.9423H25.5375Z" fill="#E7E7E7"/>
<path d="M20.7571 34.4021C20.7571 34.4021 19.4124 34.8682 19.4124 35.2891C19.4124 35.7092 20.1478 36.7968 20.1478 36.7968H21.4916C21.4916 36.7968 22.1 35.712 22.1 35.2891C22.1009 34.8663 20.7571 34.4021 20.7571 34.4021Z" fill="#655351"/>
<path d="M21.9662 41.9423L21.4925 36.7968H20.1487L19.642 41.9423H21.9662Z" fill="#655351"/>
<path d="M26.7224 32.4923L22.4546 35.3023L20.7849 34.4068L24.4397 30.7002L26.7224 32.4923Z" fill="white"/>
<path d="M14.8385 32.4706L18.9943 35.3023L20.7844 34.4068L17.1146 30.687L14.8385 32.4706Z" fill="white"/>
<path d="M32.5417 41.9423C32.1594 38.1115 31.6593 34.4275 31.1056 33.7702C29.8823 32.3228 24.9704 31.1164 24.9704 31.1164L23.4175 41.9423H32.5417Z" fill="#1C2C42"/>
<path d="M25.4515 41.9423L28.0648 36.7337L26.026 35.6621L27.5195 34.7627L24.9694 31.1155L23.4514 41.9423H25.4515Z" fill="#0D3858"/>
<path d="M18.1242 41.9423L16.5713 31.1155C16.5713 31.1155 11.6584 32.3218 10.437 33.7692C9.88238 34.4266 9.38139 38.1105 9 41.9423H18.1242Z" fill="#1C2C42"/>
<path d="M16.0892 41.9423H18.0894L16.5713 31.1155L14.0221 34.7627L15.5157 35.6621L13.476 36.7337L16.0892 41.9423Z" fill="#0D3858"/>
<path d="M19.9965 28.8262C19.9965 28.8262 20.9203 28.7057 21.1209 28.8262C21.3215 28.9468 21.6436 29.0664 21.6436 29.0664" fill="#DBA87B"/>
<path d="M15.5516 24.6912C15.5516 24.6912 15.5516 25.7751 16.0347 26.0444C16.5169 26.3147 16.9124 26.6 16.9774 26.8194C17.0433 27.0389 17.7241 29.0362 18.0311 29.3432C18.3381 29.6502 19.2478 30.4431 19.7422 30.4412C20.3487 30.4384 20.2912 29.5636 20.2912 29.5636L20.8403 29.5852V31.4988C20.8403 31.4988 19.5096 31.5412 18.9992 31.0552C18.4041 30.4902 18.0038 30.2699 17.4237 29.8621C16.8446 29.4553 16.2287 29.0993 15.9462 28.4881C15.5507 27.6321 15.6166 26.2167 15.4104 25.6677C15.4932 25.55 15.304 24.0574 15.304 24.0574L15.5516 24.6912Z" fill="#331B19"/>
<path d="M25.9182 24.6912C25.9182 24.6912 25.9182 25.7751 25.4351 26.0444C24.9529 26.3147 24.5574 26.6 24.4915 26.8194C24.4256 27.0389 23.7447 29.0362 23.4377 29.3432C23.1307 29.6502 22.2211 30.4431 21.7257 30.4412C21.1202 30.4384 21.1767 29.5636 21.1767 29.5636L20.6277 29.5852V31.4988C20.6277 31.4988 21.9583 31.5412 22.4687 31.0552C23.0639 30.4902 23.4641 30.2699 24.0433 29.8621C24.6234 29.4553 25.2402 29.0993 25.5217 28.4881C25.9173 27.6321 25.8504 26.2167 26.0576 25.6677C25.9747 25.55 26.1649 24.0574 26.1649 24.0574L25.9182 24.6912Z" fill="#331B19"/>
<path d="M25.3522 21.9144C25.3522 21.9144 25.2929 22.2534 24.9887 22.5416C24.7589 22.7582 23.3595 22.9041 23.2107 22.8382C22.9913 22.7384 22.7041 22.2666 22.7041 22.2666C22.7041 22.2666 23.1976 21.5886 23.805 21.5886C24.4114 21.5886 25.3522 21.9144 25.3522 21.9144Z" fill="white"/>
<path d="M23.8039 21.7211C24.2428 21.7211 24.8539 21.8915 25.1609 21.9857C25.2306 22.0083 25.1948 22.2475 25.0781 22.4481C25.3276 22.2183 25.3521 21.9151 25.3521 21.9151C25.3521 21.9151 24.4113 21.5893 23.8039 21.5893C23.1956 21.5893 22.7031 22.2673 22.7031 22.2673C22.7031 22.2673 22.7219 22.3332 22.7737 22.3756C22.882 22.24 23.2775 21.7211 23.8039 21.7211Z" fill="#432918"/>
<path d="M24.4742 22.2032C24.4742 22.545 24.1993 22.82 23.8574 22.82C23.5165 22.82 23.2406 22.545 23.2406 22.2032C23.2406 21.8632 23.5165 21.5873 23.8574 21.5873C24.1993 21.5882 24.4742 21.8642 24.4742 22.2032Z" fill="#432918"/>
<path d="M24.3867 22.2051C24.3867 22.4669 23.6531 21.7323 23.9139 21.7323C24.1748 21.7333 24.3867 21.9451 24.3867 22.2051Z" fill="white"/>
<path d="M16.3304 21.9151C16.3304 21.9151 16.3898 22.2541 16.6939 22.5423C16.9237 22.7589 18.324 22.9048 18.4719 22.8389C18.6932 22.7391 18.9795 22.2673 18.9795 22.2673C18.9795 22.2673 18.486 21.5893 17.8796 21.5893C17.2712 21.5893 16.3304 21.9151 16.3304 21.9151Z" fill="white"/>
<path d="M17.8803 21.7203C17.4414 21.7203 16.8284 21.8908 16.5233 21.985C16.4526 22.0076 16.4884 22.2468 16.6061 22.4473C16.3566 22.2176 16.3321 21.9143 16.3321 21.9143C16.3321 21.9143 17.2729 21.5885 17.8812 21.5885C18.4886 21.5885 18.9811 22.2665 18.9811 22.2665C18.9811 22.2665 18.9623 22.3324 18.9105 22.3748C18.8022 22.2392 18.4067 21.7203 17.8803 21.7203Z" fill="#432918"/>
<path d="M17.2081 22.2032C17.2081 22.545 17.485 22.82 17.8249 22.82C18.1649 22.82 18.4418 22.545 18.4418 22.2032C18.4418 21.8632 18.1658 21.5873 17.8249 21.5873C17.484 21.5873 17.2081 21.8642 17.2081 22.2032Z" fill="#432918"/>
<path d="M17.296 22.2051C17.296 22.4669 18.0296 21.7323 17.7688 21.7323C17.5079 21.7333 17.296 21.9451 17.296 22.2051Z" fill="white"/>
<path d="M20.6196 24.6949L20.0659 24.257L20.6196 22.9669V24.6949Z" fill="#E09D72"/>
<path d="M19.0808 27.2197L18.8737 27.0181L22.5953 26.8175L21.9276 27.2197H19.0808Z" fill="#E09D72"/>
<path d="M23.5314 26.1141C23.1161 25.8175 21.8203 25.5886 21.4738 25.4088C21.1724 25.2524 21.1112 25.1536 21.1112 25.1536C21.1112 25.1536 21.1225 25.3918 20.791 25.4088C20.4605 25.4248 20.4718 25.1536 20.4718 25.1536C20.4718 25.1536 20.3466 25.2524 20.0452 25.4088C19.6996 25.5886 18.4029 25.8175 17.9876 26.1141C17.593 26.3957 17.6504 26.955 17.6504 26.955L17.7823 27.2554C17.7823 27.2554 17.7813 26.5831 18.2494 26.4107C18.4848 26.3241 19.79 25.9559 20.2524 26.0086C20.6131 26.051 20.7609 26.3382 20.7609 26.3382C20.7609 26.3382 20.9445 26.051 21.3052 26.0086C21.7657 25.9559 23.0361 26.3241 23.2706 26.4107C23.7386 26.5831 23.7847 27.1867 23.7847 27.1867L23.9222 26.988C23.9213 26.988 23.926 26.3957 23.5314 26.1141Z" fill="#331B19"/>
</svg>
