<svg width="42" height="42" viewBox="0 0 42 42" fill="none" xmlns="http://www.w3.org/2000/svg">
<rect width="42" height="42" rx="3" fill="#EFCACA"/>
<path d="M26.1928 25.3495C24.1648 27.756 21.5952 28.5546 20.5898 28.5503C19.5609 28.5461 16.7823 27.8274 14.7181 25.3037C13.5484 23.8739 13.0739 21.0665 12.7722 19.1057C12.5984 17.9798 12.1282 14.3109 12.9225 13.1156C13.4908 12.2595 14.2841 11.5206 15.3461 10.9715C15.4783 10.9032 14.2852 10.2112 14.4259 10.1483C14.4824 10.1227 15.7736 10.4757 15.7054 10.1483C15.5956 9.63867 15.4133 9 15.4133 9C15.4133 9 16.0626 9.94574 17.1043 9.94254C18.1769 9.93935 19.1813 9.93721 20.3648 9.94254C21.8298 9.94788 23.8908 9.90736 24.1329 10.883C26.1128 10.8222 27.1108 11.8522 27.597 12.735C28.305 14.0209 28.563 15.8207 28.3732 17.5309C28.1227 19.7891 27.4104 23.9058 26.1928 25.3495Z" fill="#352E35"/>
<path d="M14.1043 20.737C14.1043 20.737 14.3517 18.8679 12.7289 19.3179C11.4782 19.6655 12.747 23.1382 13.568 23.4378C14.2706 23.6947 14.4252 23.1552 14.4252 23.1552L14.1043 20.737Z" fill="#F9BB8D"/>
<path d="M26.9043 20.7871C26.9043 20.7871 26.6718 18.9159 28.2914 19.3797C29.5389 19.7369 28.2424 23.1989 27.4193 23.4911C26.7145 23.7427 26.5641 23.2032 26.5641 23.2032L26.9043 20.7871Z" fill="#F9BB8D"/>
<path d="M29.7941 41.9389L30.7227 32.3866C30.7227 32.3866 27.3332 30.8843 25.3841 30.4098C23.5492 29.961 21.3986 30.0015 21.1736 30.0079C20.9497 30.0004 18.7981 29.9428 16.961 30.3757C15.0087 30.8363 11.6639 32.312 11.6639 32.312C11.6639 32.312 12.389 36.7784 13.0884 41.94H29.7941V41.9389Z" fill="#F9BB8D"/>
<path d="M20.5741 33.52C20.5741 33.52 25.1365 30.4322 24.8646 30.2819C23.2834 29.4054 23.3879 26.9659 23.3879 26.9659L17.6526 26.6429C17.6526 26.6429 18.0013 30.1486 16.3017 30.5762C16.177 30.6081 20.5741 33.52 20.5741 33.52Z" fill="#F9BB8D"/>
<path d="M17.5672 28.7369C17.805 28.818 18.0395 28.9459 18.2634 29.1368C19.0173 29.7818 20.7669 30.75 21.8182 30.4258C22.5955 30.1849 23.1724 29.5067 23.7172 28.883C23.3472 27.9426 23.3877 26.9659 23.3877 26.9659L17.6525 26.6429C17.6525 26.6429 17.7581 27.7091 17.5672 28.7369Z" fill="#E09D72"/>
<path d="M27.066 21.6327C26.7834 23.6841 26.696 24.8686 25.5029 26.3145C24.6734 27.3199 22.8651 28.8361 21.5397 29.4524C21.1676 29.6251 19.9735 29.6443 19.5981 29.4993C18.1513 28.9406 16.1158 27.4596 15.4068 26.2739C14.4632 24.6991 14.2116 23.4442 13.9386 21.5815C13.6102 19.3424 13.5814 20.1314 13.59 18.0203C13.607 13.7212 15.2778 10.6228 20.0982 10.642C24.9218 10.6612 27.3709 13.3726 27.4264 17.7846C27.4562 20.205 27.3763 19.385 27.066 21.6327Z" fill="#F9BB8D"/>
<g style="mix-blend-mode:multiply">
<path d="M15.4619 18.5449C16.1123 17.8742 17.1327 18.048 18.039 18.0245C18.892 18.0022 20.777 17.7057 21.4093 16.9743C21.9702 16.326 22.9969 15.3824 23.9181 15.3856C26.0549 15.3952 26.4014 19.3733 26.733 21.091C26.8215 21.5516 26.9334 21.2286 27.0571 21.7052C27.0603 21.6806 27.0646 21.6572 27.0667 21.6327C27.377 19.385 27.458 20.205 27.4271 17.7857C27.3717 13.3726 25.0601 10.368 20.2365 10.3498C15.415 10.3307 13.6067 13.7213 13.5896 18.0203C13.5821 20.0333 14.1536 19.4042 14.4415 21.284C14.8563 20.415 14.6942 19.3371 15.4619 18.5449Z" fill="#E7DCD6"/>
</g>
<path d="M15.0446 18.2687C16.6472 17.0692 21.2735 18.1141 23.3409 14.5689C25.7911 14.6094 26.175 17.3134 26.5631 18.1951C26.7433 18.6024 26.7358 21.9738 26.7358 21.9738C26.7358 21.9738 27.0599 21.6721 27.0642 21.6316C27.3745 19.384 27.7285 20.2636 27.6975 17.8454C27.6421 13.4323 25.0576 10.368 20.234 10.3488C15.4135 10.3296 13.3664 13.7181 13.3493 18.0171C13.3419 20.1293 13.6095 19.3424 13.9379 21.5804C13.9432 21.6145 14.4252 21.4322 14.4252 21.4322C14.4252 21.4322 14.7226 18.5097 15.0446 18.2687Z" fill="#352E35"/>
<path d="M11.7617 41.9389L12.6232 39.3597C12.6232 39.3597 14.9902 31.3289 11.6625 32.3109C9.58552 32.9251 8.18983 37.8798 7.38483 41.9389H11.7617Z" fill="#F9BB8D"/>
<path d="M30.678 41.9389H35.0581C34.2818 37.8947 32.9299 33.0104 30.8774 32.3866C27.5572 31.378 29.8613 39.428 29.8613 39.428L30.678 41.9389Z" fill="#F9BB8D"/>
<path d="M25.3728 20.7569C25.3728 20.7569 25.3077 21.1152 24.9836 21.4201C24.7394 21.6494 23.2531 21.7976 23.0964 21.7272C22.8629 21.6216 22.5601 21.1184 22.5601 21.1184C22.5601 21.1184 23.0857 20.4019 23.7318 20.404C24.3748 20.4061 25.3728 20.7569 25.3728 20.7569Z" fill="white"/>
<path d="M23.7317 20.544C24.1976 20.5462 24.847 20.7285 25.17 20.8298C25.2447 20.8532 25.2052 21.1081 25.0805 21.3181C25.347 21.0761 25.3737 20.7551 25.3737 20.7551C25.3737 20.7551 24.3768 20.4044 23.7328 20.4022C23.0877 20.4001 22.561 21.1166 22.561 21.1166C22.561 21.1166 22.5823 21.188 22.6356 21.2328C22.7508 21.0889 23.1719 20.5419 23.7317 20.544Z" fill="#432918"/>
<path d="M24.4415 21.0601C24.4394 21.4215 24.1462 21.7126 23.7837 21.7116C23.4222 21.7105 23.1311 21.4162 23.1333 21.0548C23.1343 20.6933 23.4286 20.4012 23.789 20.4033C24.1504 20.4044 24.4426 20.6986 24.4415 21.0601Z" fill="#432918"/>
<path d="M24.3469 21.0601C24.3458 21.3373 23.5717 20.5558 23.8479 20.5579C24.1251 20.559 24.3479 20.7839 24.3469 21.0601Z" fill="white"/>
<path d="M15.0452 19.625C15.0452 19.625 15.4151 19.3904 16.2393 19.1377C17.1371 18.8637 18.3611 19.2944 18.4091 19.2955C18.4933 19.2955 18.616 19.2742 18.6181 19.0545C18.6181 18.8349 18.552 18.6568 18.4678 18.6558C18.4219 18.6558 17.2075 18.3625 16.2959 18.6302C15.5975 18.8349 15.0452 19.625 15.0452 19.625Z" fill="#352E35"/>
<path d="M26.0869 19.6687C26.0869 19.6687 25.7244 19.4309 24.913 19.1718C24.0302 18.8903 22.8189 19.3115 22.772 19.3115C22.6888 19.3104 22.5684 19.288 22.5684 19.0694C22.5705 18.8498 22.6377 18.6717 22.7198 18.6717C22.7667 18.6717 23.9651 18.3892 24.8629 18.6621C25.5485 18.8743 26.0869 19.6687 26.0869 19.6687Z" fill="#352E35"/>
<path d="M15.7994 20.7179C15.7994 20.7179 15.8612 21.0772 16.1832 21.3843C16.4253 21.6157 17.9105 21.7756 18.0672 21.7063C18.3018 21.6018 18.6078 21.1017 18.6078 21.1017C18.6078 21.1017 18.0875 20.3799 17.4435 20.3778C16.7984 20.3756 15.7994 20.7179 15.7994 20.7179Z" fill="white"/>
<path d="M17.4435 20.5195C16.9776 20.5174 16.3282 20.6944 16.002 20.7946C15.9273 20.817 15.9657 21.0718 16.0894 21.284C15.8239 21.0388 15.7994 20.7178 15.7994 20.7178C15.7994 20.7178 16.7984 20.3745 17.4435 20.3777C18.0886 20.3798 18.6078 21.1017 18.6078 21.1017C18.6078 21.1017 18.5865 21.172 18.5332 21.2168C18.418 21.0718 18.0022 20.5216 17.4435 20.5195Z" fill="#432918"/>
<path d="M16.7294 21.0292C16.7273 21.3917 17.0195 21.686 17.3809 21.687C17.7424 21.6881 18.0356 21.397 18.0377 21.0345C18.0388 20.6741 17.7477 20.3788 17.3862 20.3777C17.0248 20.3766 16.7305 20.6677 16.7294 21.0292Z" fill="#432918"/>
<path d="M16.8236 21.0313C16.8215 21.3085 17.603 20.5323 17.3269 20.5312C17.0497 20.5302 16.8247 20.7541 16.8236 21.0313Z" fill="white"/>
<path d="M20.5026 23.8078L19.9183 23.3418L20.5111 21.9738L20.5026 23.8078Z" fill="#E09D72"/>
<path d="M19.0365 26.1023L18.6014 25.7099L19.3275 25.8986L21.8513 25.8805L22.5603 25.6566L22.0112 26.1033L19.0365 26.1023Z" fill="#E09D72"/>
<path d="M30.5561 41.9389H35.2987C34.5001 37.867 32.969 32.8685 30.8867 32.2448C27.5632 31.2489 29.8983 39.2894 29.8983 39.2894C29.8983 39.2894 30.2395 40.6616 30.5561 41.9389Z" fill="#EDEDED"/>
<g opacity="0.4">
<path opacity="0.4" d="M34.0371 41.9389H35.2984C34.6001 38.3852 33.3472 34.1267 31.653 32.6841C32.6659 34.4178 33.3984 36.418 33.81 38.3511C34.0744 39.5911 34.1043 40.7661 34.0371 41.9389Z" fill="white"/>
</g>
<path d="M30.5559 41.9389H31.8631C31.1925 40.9879 30.6913 39.4578 30.2051 37.2657C30.2009 37.2443 29.5793 37.9608 29.5622 37.947C29.7381 38.7381 29.8981 39.2883 29.8981 39.2883C29.8981 39.2883 30.2392 40.6616 30.5559 41.9389Z" fill="#E9E9E9"/>
<path d="M12.023 41.9389L12.6595 39.2894C12.6595 39.2894 14.9956 31.2489 11.6711 32.2448C9.58667 32.8685 7.83059 37.866 7 41.9389H12.023Z" fill="#EDEDED"/>
<path d="M12.0224 41.9389L12.6589 39.2894C12.6589 39.2894 12.7996 38.8064 12.9617 38.0931C12.177 39.0079 11.4647 40.8866 10.9679 41.4751C10.8271 41.6436 10.68 41.7939 10.5307 41.9389H12.0224Z" fill="#E9E9E9"/>
<path d="M16.7933 31.7714C16.7933 31.7714 17.6996 32.5593 20.8482 32.5593C23.9968 32.5593 24.9031 31.7714 24.9031 31.7714V36.6707H16.7933V31.7714Z" fill="white"/>
<path d="M29.8281 41.9389L30.7322 32.2448C30.7322 32.2448 27.0559 30.4439 24.9586 30.1955C23.2281 34.4103 20.6969 36.1493 20.6969 36.1493C20.6969 36.1493 17.9823 33.5499 16.5152 30.3448C14.5661 30.8129 11.6724 32.2437 11.6724 32.2437C11.6724 32.2437 12.342 36.7496 12.9902 41.9379H29.8281V41.9389Z" fill="#C13A2A"/>
<path d="M12.0099 34.5905C12.1635 35.6845 12.3575 37.094 12.5687 38.6752L14.3492 36.6004L12.0099 34.5905Z" fill="#A81916"/>
<path d="M17.7847 32.5988C17.3251 31.9058 16.8805 31.1434 16.5158 30.3448C16.0286 30.4621 15.4816 30.6391 14.9368 30.8385L17.4467 32.9933L17.7847 32.5988Z" fill="#A81916"/>
<path d="M11.6721 32.2437C11.6721 32.2437 11.6806 32.2992 11.6944 32.3962L11.9365 32.1158C11.768 32.1958 11.6721 32.2437 11.6721 32.2437Z" fill="#A81916"/>
<path d="M20.5686 41.9389L17.9553 39.6956L16.0297 41.9389H20.5686Z" fill="#A81916"/>
<path d="M25.9439 30.3896C25.5942 30.3 25.2594 30.2296 24.9577 30.1945C24.6346 30.9792 24.2849 31.6786 23.9288 32.296L24.1463 32.4836L25.9439 30.3896Z" fill="#A81916"/>
<path d="M29.8277 41.9389L29.9834 40.2767L28.5557 41.9389H29.8277Z" fill="#A81916"/>
<path d="M30.2232 37.6996L30.7318 32.2448C30.7318 32.2448 30.6977 32.2278 30.6497 32.2054L27.7527 35.5789L30.2232 37.6996Z" fill="#A81916"/>
<path d="M14.3494 36.5993L17.9554 39.6945L21.0517 36.0886L20.9206 35.9766C20.7798 36.0907 20.6967 36.1483 20.6967 36.1483C20.6967 36.1483 20.0388 35.5171 19.1976 34.4977L17.4457 32.9933L14.3494 36.5993Z" fill="#A81916"/>
<path d="M27.7527 35.5789L24.1468 32.4836L21.0515 36.0896L24.6575 39.1859L27.7527 35.5789Z" fill="#A81916"/>
<path d="M27.8644 41.9389L24.6572 39.1859L22.2923 41.9389H27.8644Z" fill="#A81916"/>
<path d="M27.7526 35.5789L30.6496 32.2054C30.2039 31.9911 27.8326 30.8736 25.9443 30.3906L24.1477 32.4847L27.7526 35.5789Z" fill="#C31B1C"/>
<path d="M19.1974 34.4977C18.7539 33.9604 18.2613 33.3174 17.7836 32.5988L17.4456 32.9922L19.1974 34.4977Z" fill="#C31B1C"/>
<path d="M24.1474 32.4836L23.9299 32.296C22.7133 34.4071 21.4274 35.5693 20.921 35.9766L21.0521 36.0886L24.1474 32.4836Z" fill="#C31B1C"/>
<path d="M28.5563 41.9389L29.984 40.2767L30.2239 37.6996L27.7535 35.5789L24.6582 39.1859L27.8654 41.9389H28.5563Z" fill="#C31B1C"/>
<path d="M17.4458 32.9933L14.9359 30.8385C13.6938 31.2948 12.4602 31.8663 11.9356 32.1158L11.6935 32.3962C11.7394 32.7076 11.8535 33.488 12.0091 34.5894L14.3484 36.5993L17.4458 32.9933Z" fill="#C31B1C"/>
<path d="M22.2927 41.9389L24.6576 39.1859L21.0516 36.0896L17.9553 39.6956L20.5686 41.9389H22.2927Z" fill="#C31B1C"/>
<path d="M13.274 41.9389H16.0302L17.9558 39.6956L14.3498 36.6003L12.5692 38.6752C12.694 39.622 12.8251 40.6275 12.9552 41.666L13.274 41.9389Z" fill="#C31B1C"/>
<path d="M14.1821 41.9389C14.0638 41.5434 13.9348 41.151 13.7834 40.7618C13.4358 39.8747 12.9496 39.0633 12.5092 38.2253C12.6638 39.38 12.827 40.6392 12.9901 41.9389H14.1821Z" fill="#E9E9E9"/>
<path d="M22.442 31.2639L24.229 28.7806L24.9583 30.1955C24.9583 30.1955 23.8846 34.454 20.6966 36.1493C22.3514 34.6822 22.442 31.2639 22.442 31.2639Z" fill="#EDEDED"/>
<path d="M24.2287 28.7796L24.1978 28.8244C24.2437 33.4752 20.9682 35.9084 20.6974 36.1493C23.8854 34.454 24.9591 30.1955 24.9591 30.1955L24.2287 28.7796Z" fill="#E9E9E9"/>
<path d="M19.1282 31.2639L16.9872 28.7806L16.5149 30.3459C16.5149 30.3459 17.5097 34.4551 20.6966 36.1504C19.0429 34.6822 19.1282 31.2639 19.1282 31.2639Z" fill="#EDEDED"/>
<path d="M18.5053 33.2833C17.8219 32.0529 17.4082 30.6977 16.8793 29.398C16.8623 29.3564 16.8505 29.3148 16.8388 29.2732L16.5157 30.3448C16.5157 30.3448 17.5105 34.454 20.6975 36.1493C20.3179 35.8124 20.0332 35.3699 19.8136 34.8912C19.3018 34.4412 18.8572 33.9156 18.5053 33.2833Z" fill="#E9E9E9"/>
<path d="M17.6434 23.4789C16.9876 23.4789 16.3212 23.3499 15.9363 23.0897C15.3542 22.6952 14.7869 21.597 14.7454 20.7867C14.723 20.3495 14.8477 20.0041 15.1057 19.7887C15.9299 19.0988 19.2523 19.1159 19.8473 19.8122C20.1351 20.1501 20.1469 20.7163 20.1053 21.1311C20.0338 21.8412 19.7342 22.74 19.2981 23.0823C18.9602 23.3467 18.3076 23.4789 17.6434 23.4789ZM17.4856 19.6757C16.6006 19.6757 15.6986 19.8026 15.3574 20.0883C15.1953 20.2237 15.1217 20.4519 15.1367 20.7664C15.175 21.517 15.7252 22.4735 16.156 22.7656C16.8309 23.2219 18.5603 23.1622 19.0561 22.7741C19.3504 22.5428 19.6468 21.7879 19.7161 21.0916C19.763 20.6193 19.7022 20.245 19.5498 20.0659C19.3387 19.8185 18.4217 19.6757 17.4856 19.6757Z" fill="#301B16"/>
<path d="M23.6443 23.4783C22.9811 23.4783 22.3286 23.3461 21.9906 23.0806C21.5545 22.7383 21.2538 21.8395 21.1835 21.1294C21.1419 20.7146 21.1525 20.1485 21.4415 19.8105C22.0354 19.1142 25.3588 19.0982 26.183 19.787C26.441 20.0024 26.5647 20.3478 26.5423 20.7861C26.5007 21.5975 25.9335 22.6946 25.3513 23.0881C24.9664 23.3493 24.3 23.4783 23.6443 23.4783ZM22.2316 22.7735C22.7284 23.1627 24.4578 23.2213 25.1317 22.765C25.5625 22.4739 26.1126 21.5175 26.151 20.7669C26.167 20.4523 26.0934 20.2231 25.9314 20.0877C25.2287 19.5002 22.1484 19.5844 21.7379 20.0642C21.5854 20.2434 21.5247 20.6176 21.5716 21.0899C21.6419 21.7873 21.9383 22.5421 22.2316 22.7735Z" fill="#301B16"/>
<path d="M21.3608 20.318H19.9257V20.7093H21.3608V20.318Z" fill="#301B16"/>
</svg>
