<svg width="30" height="24" viewBox="0 0 30 24" fill="none" xmlns="http://www.w3.org/2000/svg">
<path d="M19.6465 0H8.72454L7.81753 4.985L17.675 4.99741C22.5314 4.99741 23.9612 6.73564 23.9234 9.61614C23.8982 11.0874 23.2494 13.5892 22.9723 14.4025C22.2227 16.5629 20.6858 19.0212 14.9288 19.015L5.34212 19.0088L4.44141 24H15.3382C19.1804 24 20.8118 23.5592 22.5503 22.7708C26.3862 21.014 28.6726 17.283 29.5922 12.4097C30.9465 5.15882 29.2521 0 19.6465 0Z" fill="white"/>
<path d="M4.01229 9.4982C1.14637 9.4982 0.74325 11.3358 0.472405 12.447C0.119676 13.8934 0 14.4894 0 14.4894H11.1802C14.0462 14.4894 14.4493 12.6518 14.7201 11.5406C15.0792 10.088 15.1925 9.4982 15.1925 9.4982H4.01229Z" fill="white"/>
</svg>
