<svg width="24" height="34" viewBox="0 0 24 34" fill="none" xmlns="http://www.w3.org/2000/svg">
<path d="M22.1405 10.4C21.7711 6.69286 18.642 5.47143 14.6976 5.14286L14.6697 0L11.6173 0.0214286L11.6452 5.02857C10.8437 5.03571 10.0214 5.05714 9.20603 5.07857L9.17815 0.0357143L6.12574 0.05L6.15361 5.19286C5.49156 5.20714 4.84344 5.22143 4.20927 5.22857V5.21429L0 5.23571L0.0209069 8.57857C0.0209069 8.57857 2.27886 8.52143 2.23704 8.56429C3.47055 8.55714 3.88172 9.29286 4.0002 9.92857L4.03504 15.7857C4.11867 15.7857 4.23017 15.7857 4.35561 15.8071C4.25108 15.8071 4.14654 15.8071 4.03504 15.8071L4.07685 24.0143C4.02807 24.4143 3.7981 25.05 2.93394 25.0571C2.97576 25.0929 0.710836 25.0714 0.710836 25.0714L0.125442 28.8143L4.09776 28.7929C4.83647 28.7929 5.56822 28.8 6.27905 28.8L6.30693 34L9.35934 33.9857L9.33147 28.8429C10.1677 28.8571 10.9831 28.8571 11.7706 28.85L11.7985 33.9714L14.8509 33.95L14.823 28.7571C19.9522 28.4286 23.5412 27.0786 23.9594 22.1357C24.3008 18.1571 22.461 16.3929 19.541 15.6929C21.3181 14.75 22.4192 13.1143 22.1405 10.4ZM17.9312 21.55C17.9521 25.4357 11.457 25.0357 9.38722 25.05L9.35238 18.1571C11.4222 18.1429 17.9103 17.4929 17.9312 21.55ZM16.4607 11.8357C16.4816 15.3714 11.0598 14.9929 9.33844 15L9.30359 8.75C11.0249 8.74286 16.4398 8.15 16.4607 11.8357Z" fill="white"/>
</svg>
