<svg width="22" height="16" viewBox="0 0 22 16" fill="none" xmlns="http://www.w3.org/2000/svg">
<path d="M18.7 0H3.3C2.42479 0 1.58542 0.316071 0.966548 0.87868C0.347678 1.44129 0 2.20435 0 3V13C0 13.7956 0.347678 14.5587 0.966548 15.1213C1.58542 15.6839 2.42479 16 3.3 16H18.7C19.5752 16 20.4146 15.6839 21.0335 15.1213C21.6523 14.5587 22 13.7956 22 13V3C22 2.20435 21.6523 1.44129 21.0335 0.87868C20.4146 0.316071 19.5752 0 18.7 0ZM17.963 2L11 6.75L4.037 2H17.963ZM18.7 14H3.3C3.00826 14 2.72847 13.8946 2.52218 13.7071C2.31589 13.5196 2.2 13.2652 2.2 13V3.25L10.34 8.8C10.5304 8.92982 10.762 9 11 9C11.238 9 11.4696 8.92982 11.66 8.8L19.8 3.25V13C19.8 13.2652 19.6841 13.5196 19.4778 13.7071C19.2715 13.8946 18.9917 14 18.7 14Z" fill="#4E4E4E"/>
</svg>
