<svg width="24" height="25" viewBox="0 0 24 25" fill="none" xmlns="http://www.w3.org/2000/svg">
<path d="M13.374 0.5252C13.0027 0.187925 12.511 0 12 0C11.489 0 10.9973 0.187925 10.626 0.5252L0.938002 9.32137C0.641364 9.59105 0.405164 9.91607 0.243873 10.2765C0.0825821 10.637 -0.000403144 11.0253 1.4725e-06 11.4176V22.1198C0.000531675 22.8839 0.316836 23.6164 0.879388 24.1565C1.44194 24.6966 2.2047 25 3 25H6C6.79565 25 7.55871 24.6964 8.12132 24.1559C8.68393 23.6154 9 22.8823 9 22.1179V17.3144C9 17.0596 9.10536 16.8152 9.29289 16.6351C9.48043 16.4549 9.73479 16.3537 10 16.3537H14C14.2652 16.3537 14.5196 16.4549 14.7071 16.6351C14.8946 16.8152 15 17.0596 15 17.3144V22.1179C15 22.8823 15.3161 23.6154 15.8787 24.1559C16.4413 24.6964 17.2044 25 18 25H21C21.7957 25 22.5587 24.6964 23.1213 24.1559C23.6839 23.6154 24 22.8823 24 22.1179V11.4157C23.9999 11.0235 23.9164 10.6355 23.7548 10.2754C23.5932 9.91529 23.3568 9.59066 23.06 9.32137L13.374 0.521358V0.5252Z" fill="white"/>
</svg>
