<svg width="42" height="42" viewBox="0 0 42 42" fill="none" xmlns="http://www.w3.org/2000/svg">
<rect width="42" height="42" rx="8" fill="#EBEAF5"/>
<path d="M25.2532 32.7094L21.1613 34.6271L17.0703 32.7094L17.7911 29.0106H24.3283L25.2532 32.7094Z" fill="#DBA87B"/>
<path d="M27.2033 21.045C27.0068 23.4435 26.541 26.2584 25.6687 27.8309C25.0811 28.8893 22.6839 31.2821 21.0611 31.2821C19.4374 31.2821 17.1551 28.9737 16.4228 27.7635C15.6915 26.5534 15.1547 23.9215 14.9179 21.045C14.5326 16.3608 17.6679 14.2857 21.0601 14.2857C24.4533 14.2857 27.5858 16.3608 27.2033 21.045Z" fill="#E4B58B"/>
<path d="M28.4024 23.0167C28.3161 23.5383 27.8589 24.4535 27.6624 24.7826C27.5301 25.0046 26.8419 25.4484 26.5371 25.4209C26.2314 25.3934 26.3483 24.5778 26.2352 24.3008C26.1221 24.023 26.0761 23.4378 26.0904 22.8033C26.1144 21.7714 26.748 21.3722 27.3864 21.431C28.0238 21.4888 28.5711 21.9981 28.4024 23.0167Z" fill="#E4B58B"/>
<path d="M13.7429 23.0167C13.8291 23.5383 14.2864 24.4535 14.4829 24.7826C14.6151 25.0046 15.3034 25.4484 15.6072 25.4209C15.913 25.3934 15.797 24.5778 15.9091 24.3008C16.0232 24.023 16.0683 23.4378 16.0539 22.8033C16.0299 21.7714 15.3963 21.3722 14.758 21.431C14.1205 21.4888 13.5742 21.9981 13.7429 23.0167Z" fill="#E4B58B"/>
<path d="M15.4238 20.9814C15.4238 20.9814 15.8734 20.3213 16.1456 20.2312C16.7907 20.0206 17.9016 19.6849 18.1163 19.684C18.4882 19.683 19.0969 19.9372 19.0969 19.9372L18.8793 20.3981C18.8793 20.3981 18.4029 20.1221 17.9754 20.1269C17.7502 20.1288 16.9805 20.2198 16.2539 20.418C15.9922 20.4882 15.4238 20.9814 15.4238 20.9814Z" fill="#331B19"/>
<path d="M26.6649 21.0203C26.6649 21.0203 26.2355 20.3469 25.9652 20.2502C25.3268 20.0207 24.2274 19.6518 24.0127 19.6451C23.6407 19.6347 23.0244 19.8699 23.0244 19.8699L23.2286 20.3365C23.2286 20.3365 23.7136 20.0747 24.1411 20.0918C24.3663 20.1003 25.1332 20.2132 25.853 20.4323C26.1118 20.511 26.6649 21.0203 26.6649 21.0203Z" fill="#331B19"/>
<path d="M14.8847 21.4253L15.4818 23.6768L15.9544 23.5421C15.9544 23.5421 14.8521 19.628 15.4205 18.5573C15.9879 17.4865 16.495 17.018 17.1382 16.9507C17.7804 16.8843 19.2345 17.4865 20.4853 17.4192C21.7362 17.3519 23.3599 16.3826 23.9686 16.3826C24.5773 16.3826 26.0314 17.3519 26.2336 18.0214C26.4368 18.692 26.4368 22.7843 26.4368 22.7843L26.6659 23.1077L27.2343 21.4253L27.8957 21.5941C27.8957 21.5941 28.4325 16.1151 27.4174 14.8443C26.4013 13.5715 23.4606 12 20.3837 12C17.7909 12 14.5895 14.3416 14.0143 15.8145C13.3204 17.5928 14.0604 21.7392 14.0604 21.7392L14.8847 21.4253Z" fill="#331B19"/>
<path d="M25.986 41.999V32.7891L20.9317 34.3378L16.0586 32.7891V41.999H25.986Z" fill="#E7E7E7"/>
<path d="M21.0746 34.3378C21.0746 34.3378 19.6943 34.8111 19.6943 35.2388C19.6943 35.6656 20.4497 36.7714 20.4497 36.7714H21.8299C21.8299 36.7714 22.4558 35.6694 22.4558 35.2388C22.4558 34.8092 21.0746 34.3378 21.0746 34.3378Z" fill="#00B5CF"/>
<path d="M22.3174 41.999L21.8305 36.7714H20.4502L19.9307 41.999H22.3174Z" fill="#00B5CF"/>
<path d="M27.2036 32.3964L22.8193 35.2511L21.1035 34.3416L24.8581 30.5755L27.2036 32.3964Z" fill="white"/>
<path d="M14.9961 32.3746L19.2644 35.2512L21.1028 34.3416L17.3339 30.5613L14.9961 32.3746Z" fill="white"/>
<path d="M33.1781 41.999C32.787 38.1058 32.2723 34.3615 31.703 33.6938C30.4482 32.2228 25.4016 30.9975 25.4016 30.9975L23.8066 42H33.1781V41.999Z" fill="#272127"/>
<path d="M25.8978 41.999L28.5817 36.7069L26.4873 35.6172L28.021 34.7029L25.4032 30.9975L23.8428 41.999H25.8978Z" fill="#352E35"/>
<path d="M18.3715 41.999L16.7765 30.9975C16.7765 30.9975 11.7308 32.2228 10.4752 33.6938C9.9058 34.3615 9.39108 38.1058 9 41.999H18.3715Z" fill="#272127"/>
<path d="M16.2815 41.999H18.3366L16.7771 30.9975L14.1584 34.7029L15.692 35.6172L13.5977 36.7069L16.2815 41.999Z" fill="#352E35"/>
<path d="M20.3154 27.809C20.3154 27.809 21.2644 27.6857 21.4695 27.809C21.6765 27.9314 22.0063 28.0537 22.0063 28.0537" fill="#DBA87B"/>
<path d="M25.6552 21.5722C25.6552 21.5722 25.5948 21.9165 25.2823 22.2096C25.0465 22.4296 23.6088 22.5775 23.4554 22.5102C23.2292 22.4097 22.934 21.9298 22.934 21.9298C22.934 21.9298 23.441 21.2403 24.066 21.2403C24.689 21.2403 25.6552 21.5722 25.6552 21.5722Z" fill="white"/>
<path d="M24.0646 21.3762C24.5151 21.3762 25.1439 21.5488 25.4583 21.6446C25.5293 21.6674 25.4928 21.9111 25.373 22.1141C25.6299 21.8807 25.6548 21.5735 25.6548 21.5735C25.6548 21.5735 24.6886 21.2415 24.0646 21.2415C23.4397 21.2415 22.9326 21.931 22.9326 21.931C22.9326 21.931 22.9527 21.9983 23.0064 22.042C23.1176 21.9016 23.5231 21.3762 24.0646 21.3762Z" fill="#432918"/>
<path d="M24.7525 21.8672C24.7525 22.2143 24.4698 22.4941 24.1199 22.4941C23.7691 22.4941 23.4863 22.2143 23.4863 21.8672C23.4863 21.521 23.7691 21.2403 24.1199 21.2403C24.4698 21.2403 24.7525 21.521 24.7525 21.8672Z" fill="#432918"/>
<path d="M24.6626 21.8672C24.6626 22.1328 23.9102 21.3873 24.1776 21.3873C24.446 21.3883 24.6626 21.6026 24.6626 21.8672Z" fill="white"/>
<path d="M16.3889 21.5722C16.3889 21.5722 16.4493 21.9165 16.7618 22.2096C16.9976 22.4296 18.4354 22.5775 18.5878 22.5102C18.814 22.4097 19.1092 21.9298 19.1092 21.9298C19.1092 21.9298 18.6021 21.2403 17.9781 21.2403C17.3551 21.2403 16.3889 21.5722 16.3889 21.5722Z" fill="white"/>
<path d="M17.9789 21.3762C17.5284 21.3762 16.8996 21.5488 16.5852 21.6446C16.5133 21.6674 16.5507 21.9111 16.6705 22.1141C16.4136 21.8807 16.3887 21.5735 16.3887 21.5735C16.3887 21.5735 17.3549 21.2415 17.9789 21.2415C18.6029 21.2415 19.1099 21.931 19.1099 21.931C19.1099 21.931 19.0907 21.9983 19.0371 22.042C18.9249 21.9016 18.5204 21.3762 17.9789 21.3762Z" fill="#432918"/>
<path d="M17.2893 21.8672C17.2893 22.2143 17.573 22.4941 17.9229 22.4941C18.2728 22.4941 18.5565 22.2143 18.5565 21.8672C18.5565 21.521 18.2728 21.2403 17.9229 21.2403C17.574 21.2403 17.2893 21.521 17.2893 21.8672Z" fill="#432918"/>
<path d="M17.3799 21.8672C17.3799 22.1328 18.1323 21.3873 17.8649 21.3873C17.5975 21.3883 17.3799 21.6026 17.3799 21.8672Z" fill="white"/>
<path d="M21.0782 24.6944L20.5098 24.2487L21.0782 22.937V24.6944Z" fill="#E09D72"/>
<path d="M19.4628 27.1385L19.25 26.9336L23.0735 26.7297L22.3872 27.1385H19.4628Z" fill="#E09D72"/>
</svg>
