<svg width="130" height="39" viewBox="0 0 130 39" fill="none" xmlns="http://www.w3.org/2000/svg">
<circle cx="4" cy="13" r="4" fill="url(#paint0_linear_114_1869)"/>
<circle opacity="0.8" cx="4" cy="21" r="4" fill="url(#paint1_linear_114_1869)"/>
<circle opacity="0.6" cx="4" cy="29" r="4" fill="url(#paint2_linear_114_1869)"/>
<circle opacity="0.4" cx="12" cy="29" r="4" fill="url(#paint3_linear_114_1869)"/>
<circle cx="20" cy="29" r="4" fill="url(#paint4_linear_114_1869)"/>
<circle cx="12" cy="21" r="3" stroke="url(#paint5_linear_114_1869)" stroke-width="2"/>
<circle opacity="0.8" cx="20" cy="21" r="4" transform="rotate(-180 20 21)" fill="url(#paint6_linear_114_1869)"/>
<circle opacity="0.6" cx="20" cy="13" r="4" transform="rotate(-180 20 13)" fill="url(#paint7_linear_114_1869)"/>
<circle opacity="0.4" cx="12" cy="13" r="4" transform="rotate(-180 12 13)" fill="url(#paint8_linear_114_1869)"/>
<path d="M42.216 29.182C40.8813 29.182 39.6853 28.9653 38.628 28.532C37.5707 28.0987 36.7213 27.4573 36.08 26.608C35.456 25.7587 35.1267 24.736 35.092 23.54H39.824C39.8933 24.216 40.1273 24.736 40.526 25.1C40.9247 25.4467 41.4447 25.62 42.086 25.62C42.7447 25.62 43.2647 25.4727 43.646 25.178C44.0273 24.866 44.218 24.4413 44.218 23.904C44.218 23.4533 44.062 23.0807 43.75 22.786C43.4553 22.4913 43.0827 22.2487 42.632 22.058C42.1987 21.8673 41.5747 21.6507 40.76 21.408C39.5813 21.044 38.6193 20.68 37.874 20.316C37.1287 19.952 36.4873 19.4147 35.95 18.704C35.4127 17.9933 35.144 17.066 35.144 15.922C35.144 14.2233 35.7593 12.8973 36.99 11.944C38.2207 10.9733 39.824 10.488 41.8 10.488C43.8107 10.488 45.4313 10.9733 46.662 11.944C47.8927 12.8973 48.5513 14.232 48.638 15.948H43.828C43.7933 15.3587 43.5767 14.8993 43.178 14.57C42.7793 14.2233 42.268 14.05 41.644 14.05C41.1067 14.05 40.6733 14.1973 40.344 14.492C40.0147 14.7693 39.85 15.1767 39.85 15.714C39.85 16.3033 40.1273 16.7627 40.682 17.092C41.2367 17.4213 42.1033 17.7767 43.282 18.158C44.4607 18.5567 45.414 18.938 46.142 19.302C46.8873 19.666 47.5287 20.1947 48.066 20.888C48.6033 21.5813 48.872 22.474 48.872 23.566C48.872 24.606 48.6033 25.5507 48.066 26.4C47.546 27.2493 46.7833 27.9253 45.778 28.428C44.7727 28.9307 43.5853 29.182 42.216 29.182ZM50.7241 21.772C50.7241 20.3333 51.0188 19.0507 51.6081 17.924C52.2148 16.7973 53.0208 15.922 54.0261 15.298C55.0488 14.6567 56.1581 14.336 57.3541 14.336C58.2728 14.336 59.0961 14.5007 59.8241 14.83C60.5521 15.142 61.1414 15.584 61.5921 16.156V14.492H66.0381V35.916H61.5921V27.18C61.0894 27.7867 60.4741 28.272 59.7461 28.636C59.0354 29 58.2208 29.182 57.3021 29.182C56.1234 29.182 55.0314 28.87 54.0261 28.246C53.0208 27.622 52.2148 26.7467 51.6081 25.62C51.0188 24.4933 50.7241 23.2107 50.7241 21.772ZM61.5921 21.746C61.5921 20.966 61.4361 20.316 61.1241 19.796C60.8294 19.2587 60.4394 18.86 59.9541 18.6C59.4688 18.3227 58.9574 18.184 58.4201 18.184C57.9001 18.184 57.3974 18.3227 56.9121 18.6C56.4268 18.86 56.0281 19.2587 55.7161 19.796C55.4041 20.3333 55.2481 20.992 55.2481 21.772C55.2481 22.552 55.4041 23.2107 55.7161 23.748C56.0281 24.268 56.4268 24.6667 56.9121 24.944C57.3974 25.204 57.9001 25.334 58.4201 25.334C58.9401 25.334 59.4428 25.204 59.9281 24.944C60.4308 24.6667 60.8294 24.2593 61.1241 23.722C61.4361 23.1847 61.5921 22.526 61.5921 21.746ZM83.5806 14.492V29H79.1346V27.024C78.6839 27.6653 78.0686 28.1853 77.2886 28.584C76.5259 28.9653 75.6766 29.156 74.7406 29.156C73.6312 29.156 72.6519 28.9133 71.8026 28.428C70.9532 27.9253 70.2946 27.206 69.8266 26.27C69.3586 25.334 69.1246 24.2333 69.1246 22.968V14.492H73.5446V22.37C73.5446 23.3407 73.7959 24.0947 74.2986 24.632C74.8012 25.1693 75.4772 25.438 76.3266 25.438C77.1932 25.438 77.8779 25.1693 78.3806 24.632C78.8832 24.0947 79.1346 23.3407 79.1346 22.37V14.492H83.5806ZM85.8901 21.72C85.8901 20.2293 86.1674 18.9207 86.7221 17.794C87.2941 16.6673 88.0654 15.8007 89.0361 15.194C90.0068 14.5873 91.0901 14.284 92.2861 14.284C93.3088 14.284 94.2014 14.492 94.9641 14.908C95.7441 15.324 96.3421 15.87 96.7581 16.546V14.492H101.204V29H96.7581V26.946C96.3248 27.622 95.7181 28.168 94.9381 28.584C94.1754 29 93.2828 29.208 92.2601 29.208C91.0814 29.208 90.0068 28.9047 89.0361 28.298C88.0654 27.674 87.2941 26.7987 86.7221 25.672C86.1674 24.528 85.8901 23.2107 85.8901 21.72ZM96.7581 21.746C96.7581 20.6367 96.4461 19.7613 95.8221 19.12C95.2154 18.4787 94.4701 18.158 93.5861 18.158C92.7021 18.158 91.9481 18.4787 91.3241 19.12C90.7174 19.744 90.4141 20.6107 90.4141 21.72C90.4141 22.8293 90.7174 23.7133 91.3241 24.372C91.9481 25.0133 92.7021 25.334 93.5861 25.334C94.4701 25.334 95.2154 25.0133 95.8221 24.372C96.4461 23.7307 96.7581 22.8553 96.7581 21.746ZM108.867 16.91C109.387 16.1127 110.037 15.4887 110.817 15.038C111.597 14.57 112.463 14.336 113.417 14.336V19.042H112.195C111.085 19.042 110.253 19.2847 109.699 19.77C109.144 20.238 108.867 21.07 108.867 22.266V29H104.421V14.492H108.867V16.91ZM129.218 21.512C129.218 21.928 129.192 22.3613 129.14 22.812H119.078C119.147 23.7133 119.433 24.4067 119.936 24.892C120.456 25.36 121.088 25.594 121.834 25.594C122.943 25.594 123.714 25.126 124.148 24.19H128.88C128.637 25.1433 128.195 26.0013 127.554 26.764C126.93 27.5267 126.141 28.1247 125.188 28.558C124.234 28.9913 123.168 29.208 121.99 29.208C120.568 29.208 119.303 28.9047 118.194 28.298C117.084 27.6913 116.218 26.8247 115.594 25.698C114.97 24.5713 114.658 23.254 114.658 21.746C114.658 20.238 114.961 18.9207 115.568 17.794C116.192 16.6673 117.058 15.8007 118.168 15.194C119.277 14.5873 120.551 14.284 121.99 14.284C123.394 14.284 124.642 14.5787 125.734 15.168C126.826 15.7573 127.675 16.598 128.282 17.69C128.906 18.782 129.218 20.056 129.218 21.512ZM124.668 20.342C124.668 19.5793 124.408 18.9727 123.888 18.522C123.368 18.0713 122.718 17.846 121.938 17.846C121.192 17.846 120.56 18.0627 120.04 18.496C119.537 18.9293 119.225 19.5447 119.104 20.342H124.668Z" fill="black"/>
<defs>
<linearGradient id="paint0_linear_114_1869" x1="-0.191387" y1="8.6" x2="6.83264" y2="10.0199" gradientUnits="userSpaceOnUse">
<stop stop-color="#7166D2"/>
<stop offset="1" stop-color="#534ABA"/>
<stop offset="1" stop-color="#534ABA"/>
</linearGradient>
<linearGradient id="paint1_linear_114_1869" x1="-0.191387" y1="16.6" x2="6.83264" y2="18.0199" gradientUnits="userSpaceOnUse">
<stop stop-color="#7166D2"/>
<stop offset="1" stop-color="#534ABA"/>
</linearGradient>
<linearGradient id="paint2_linear_114_1869" x1="-0.191387" y1="24.6" x2="6.83264" y2="26.0199" gradientUnits="userSpaceOnUse">
<stop stop-color="#7166D2"/>
<stop offset="1" stop-color="#534ABA"/>
</linearGradient>
<linearGradient id="paint3_linear_114_1869" x1="7.80861" y1="24.6" x2="14.8326" y2="26.0199" gradientUnits="userSpaceOnUse">
<stop stop-color="#7166D2"/>
<stop offset="1" stop-color="#534ABA"/>
</linearGradient>
<linearGradient id="paint4_linear_114_1869" x1="15.8086" y1="24.6" x2="22.8326" y2="26.0199" gradientUnits="userSpaceOnUse">
<stop stop-color="#7166D2"/>
<stop offset="1" stop-color="#534ABA"/>
</linearGradient>
<linearGradient id="paint5_linear_114_1869" x1="12" y1="17" x2="12" y2="25" gradientUnits="userSpaceOnUse">
<stop stop-color="#7166D2"/>
<stop offset="1" stop-color="#534ABA"/>
</linearGradient>
<linearGradient id="paint6_linear_114_1869" x1="15.8086" y1="16.6" x2="22.8326" y2="18.0199" gradientUnits="userSpaceOnUse">
<stop stop-color="#7166D2"/>
<stop offset="1" stop-color="#534ABA"/>
</linearGradient>
<linearGradient id="paint7_linear_114_1869" x1="15.8086" y1="8.6" x2="22.8326" y2="10.0199" gradientUnits="userSpaceOnUse">
<stop stop-color="#7166D2"/>
<stop offset="1" stop-color="#534ABA"/>
</linearGradient>
<linearGradient id="paint8_linear_114_1869" x1="7.80861" y1="8.6" x2="14.8326" y2="10.0199" gradientUnits="userSpaceOnUse">
<stop stop-color="#7166D2"/>
<stop offset="1" stop-color="#534ABA"/>
</linearGradient>
</defs>
</svg>
