<svg width="25" height="29" viewBox="0 0 25 29" fill="none" xmlns="http://www.w3.org/2000/svg">
<path d="M14.8834 27.8C14.8834 28.1183 14.7577 28.4235 14.5341 28.6485C14.3104 28.8736 14.0071 29 13.6908 29H7.3304C7.01411 29 6.71078 28.8736 6.48713 28.6485C6.26348 28.4235 6.13783 28.1183 6.13783 27.8C6.13783 27.4817 6.26348 27.1765 6.48713 26.9515C6.71078 26.7264 7.01411 26.6 7.3304 26.6H13.6908C14.0071 26.6 14.3104 26.7264 14.5341 26.9515C14.7577 27.1765 14.8834 27.4817 14.8834 27.8ZM20.083 23.9992C19.9106 24.3048 19.6605 24.5586 19.3582 24.7345C19.056 24.9105 18.7125 25.0021 18.3634 25H2.65781C2.30862 25.0021 1.96518 24.9104 1.66291 24.7345C1.36063 24.5586 1.11044 24.3047 0.938126 23.9991C0.764121 23.6936 0.672979 23.3474 0.673834 22.9952C0.674689 22.643 0.76751 22.2973 0.942996 21.9926C1.50847 21.0136 2.18277 19.1446 2.18277 15.8V15.4C2.18013 13.1749 3.05601 11.0399 4.61773 9.46462C6.17945 7.88933 8.29909 7.00278 10.5104 7L10.574 7.0002C15.1314 7.0343 18.8392 10.843 18.8392 15.4904V15.8C18.8392 19.1448 19.513 21.014 20.0783 21.993C20.2537 22.2977 20.3465 22.6434 20.3473 22.9955C20.3481 23.3476 20.257 23.6937 20.083 23.9992ZM17.7025 22.6C16.6801 20.445 16.4541 17.7553 16.4541 15.8V15.4904C16.4541 12.1566 13.8083 9.4244 10.5563 9.4002C10.5412 9.40008 10.526 9.40002 10.5109 9.4C9.72914 9.40131 8.95531 9.55755 8.23356 9.85979C7.51182 10.162 6.85631 10.6043 6.30445 11.1615C5.7526 11.7187 5.3152 12.3797 5.01725 13.107C4.71929 13.8342 4.56661 14.6134 4.56791 15.4V15.8C4.56791 17.7553 4.34172 20.4451 3.3187 22.6H17.7025Z" fill="#4E4E4E"/>
<circle cx="16.3333" cy="8.33333" r="8.33333" fill="#5C52C1"/>
<path d="M15.129 8.58092L15.422 6H18.268V6.84054H16.2486L16.123 7.9322C16.3625 7.80432 16.6171 7.74037 16.8869 7.74037C17.3705 7.74037 17.7495 7.89035 18.0239 8.19029C18.2982 8.49023 18.4354 8.90992 18.4354 9.44936C18.4354 9.7772 18.3657 10.0713 18.2261 10.3318C18.089 10.5898 17.8913 10.791 17.6332 10.9351C17.3751 11.077 17.0705 11.1479 16.7194 11.1479C16.4125 11.1479 16.1277 11.0863 15.865 10.963C15.6022 10.8375 15.3941 10.6619 15.2407 10.4364C15.0895 10.2108 15.0093 9.95392 15 9.6656H15.9975C16.0184 9.87719 16.0917 10.0423 16.2172 10.1609C16.3451 10.2771 16.5113 10.3352 16.716 10.3352C16.9438 10.3352 17.1194 10.2539 17.2426 10.0911C17.3658 9.92601 17.4275 9.6935 17.4275 9.39355C17.4275 9.10524 17.3565 8.88435 17.2147 8.73089C17.0729 8.57743 16.8717 8.5007 16.6113 8.5007C16.3718 8.5007 16.1777 8.56348 16.0289 8.68903L15.9312 8.77972L15.129 8.58092Z" fill="white"/>
</svg>
