<svg width="24" height="24" viewBox="0 0 24 24" fill="none" xmlns="http://www.w3.org/2000/svg">
<rect width="24" height="24" rx="3" fill="#ABA7D9"/>
<path d="M4 14.2514H5.98723C6.3932 14.2514 6.75888 14.006 6.91268 13.6303L8.0568 10.8356C8.11577 10.6933 8.21623 10.5712 8.34569 10.4842C8.47516 10.3973 8.62793 10.3495 8.78502 10.3466C8.9421 10.3438 9.09657 10.3861 9.22924 10.4683C9.3619 10.5505 9.4669 10.669 9.5312 10.809L10.85 13.7078C11.2248 14.5317 12.4141 14.4734 12.7066 13.6168L14.4416 8.53538C14.496 8.37475 14.6024 8.23573 14.7447 8.13927C14.8871 8.04281 15.0576 7.99413 15.2308 8.00056C15.4039 8.007 15.5702 8.0682 15.7046 8.17495C15.839 8.28169 15.9342 8.42821 15.976 8.59242L17.2316 13.4993C17.3448 13.9419 17.7435 14.2514 18.2003 14.2514H20" stroke="white" stroke-width="2" stroke-linecap="round"/>
</svg>
