<svg width="24" height="24" viewBox="0 0 24 24" fill="none" xmlns="http://www.w3.org/2000/svg">
<path d="M22.3509 20C23.0873 20 23.6842 20.597 23.6842 21.3333V21.3333C23.6842 22.8 22.5 24 21.0526 24H2.63158C1.93364 24 1.26429 23.719 0.770772 23.219C0.277255 22.7189 0 22.0406 0 21.3333V2.66667C0 1.95942 0.277255 1.28115 0.770772 0.781048C1.26429 0.280951 1.93364 0 2.63158 0H21.0526C22.5 0 23.6842 1.2 23.6842 2.66667V2.66667C23.6842 3.40305 23.0873 4 22.3509 4H11.8421C11.1442 4 10.4748 4.28095 9.9813 4.78105C9.48778 5.28115 9.21053 5.95942 9.21053 6.66667V17.3333C9.21053 18.0406 9.48778 18.7189 9.9813 19.219C10.4748 19.719 11.1442 20 11.8421 20H22.3509ZM11.8421 14.3333C11.8421 15.9902 13.1853 17.3333 14.8421 17.3333H21C22.6569 17.3333 24 15.9902 24 14.3333V9.66667C24 8.00982 22.6569 6.66667 21 6.66667H14.8421C13.1852 6.66667 11.8421 8.00981 11.8421 9.66667V14.3333ZM17.1053 14C16.0132 14 15.1316 13.1067 15.1316 12C15.1316 10.8933 16.0132 10 17.1053 10C18.1974 10 19.0789 10.8933 19.0789 12C19.0789 13.1067 18.1974 14 17.1053 14Z" fill="#ABA7D9"/>
</svg>
